<mxfile host="app.diagrams.net" modified="2021-03-15T06:58:16.536Z" agent="5.0 (Windows NT 10.0; Win64; x64) AppleWebKit/537.36 (KHTML, like Gecko) Chrome/89.0.4389.82 Safari/537.36 Edg/89.0.774.50" etag="m7RhuWhSpIMPOENRcC2P" version="14.4.7" type="github">
  <diagram id="au_tWdvqi8h9I-rKZbzo" name="第 1 页">
    <mxGraphModel dx="1422" dy="772" grid="1" gridSize="10" guides="1" tooltips="1" connect="1" arrows="1" fold="1" page="1" pageScale="1" pageWidth="827" pageHeight="1169" math="0" shadow="0">
      <root>
        <mxCell id="0" />
        <mxCell id="1" parent="0" />
        <mxCell id="g8UI2GeRNX_eKLhDF2_x-2" value="" style="shape=image;verticalLabelPosition=bottom;labelBackgroundColor=#ffffff;verticalAlign=top;aspect=fixed;imageAspect=0;image=data:image/png,iVBORw0KGgoAAAANSUhEUgAAAXoAAACmCAYAAADUK0RwAAAgAElEQVR4Ae2d2XPb1rbm73/iduJKnH1ADEcDJZcoihqKlGRZ86yyJmoeqFm24yG2Y/vIsux4iO0kHmI5HpIoiXKs+CaOT5w4duLjnOqu7qqufrlV/dQP/XT74fat7n75ujYpECBFgNBACaTWAwskAWzsvda3f1jY2MD6pz/96U+gD9mANEAaIA2krgb+iZybus4l35JvSQOkAa4BAj1d0dAVHWmANJDiGiDQp7iDKaLbfhEdq5rBrUfPcY9/Pp9BGWNhkDOlD6fUdY8eoDdPW7edtMJYOnwDV/DBgyeYn+2BQ2ejVLSDLUHPmIC9XgcOFgvITEEH2L199q+fiPquYlzpy8aedehDKezG6NznGK/fXNhxyBS2TqK3cx/S11F/IyCxmlnML1xGU0ER8jx7IOuOwYQM7OH/+6Yw+3gB/Z7NbbtRna3+7xn+CGdPjqIkSwifvKzuq9+O5R/ClaUFTLVUID8nfV1l6cu16/cNBT0HxOE+Bbd8scXjq5TxjwN/Dn7+GBTh0wlQbyBeTlOFiPPVDrgNttFvv9HfWZ6IF6MSatd47Hj7b3X74tlrNfWrrZfxotmxqR2FMRkDByrx9RE3vGv0UXrl+7i8+Agnx/zIT9f0ypRSdJy6j08Wf8H8wiJmjvqRK2rrue1CIJ1B6RqPzVg2ykdmMD25f10nKiM/Wqkfk3pxOglBL7rq0Hnyc9x5eB1NuWuHPaubw/znZ1C8Rh8a2d6u/28q6EVJgCdDgGevBDPQb7Wx4oE6Xv3Wu3+88u20fitAv972M6UB737xFO93uiHoOjo/wZUcXsL8J6dRt9eL/PJ+HLn7My4MF0acyKyAdL11XM/+VuqXrKDnduFXRGXHFjF/NbDmEyUrP4Nb35xHuc7/67G53feNAD0XOo/Ib1eKuDKg4OWEjIVmB4qEUETD1x8fVHDDp51Jq+oVvGwJRXTq/rcqHLjUp+DluIyFJhEFjqiIqMgY9J37FS3q73YgO8oRTBQw1Cjhn0dlvBiVMV/vgGe5flaMzdIdmOmS8fOEgr9PyPi6VcTe5fqxfAkvp7Xjh68+ekTkLNeDyQIOtsp4Oq4Ej3+nVrvqsLJ/ItvHFBEPpmRM6SJUsUDCi4CIfWr9RQGBZhk/jMl4EZBxozLSxnHrpwh43y/j+YSC79pFTDRaj+hZYSn+5XEtHlzuwr8tVmKioxL/42/d+MeEMzxGypx7cOVqK/7nT/343z904PcT7rD+uH8nLw8Avw2FPvO+iCs+xtJw7fNBvHi3ED8s9ODff+rCfz2fj7Io/Snt13Hv7gkURumGsT3ouv4SMz3OMNizGt/DkaGqYP1Y3XnMP36Jz//5t4jPw+sTyFq2b+nRx7h95gB6Lz3C/LdPce3KSVRma/qvm3ke3vfhtdGIoUnGPOi/+RKnxgdw9PYTzC8+xoVT3cjV1Z+lV2DgwiJuLz7BhXcbUXV4CbdPNITry22USNAzpQhvdR/HziOXsOPQabzZVIZ3dH109/5Z7Ohsw1sDM9h55Dx2DvRit06PTC7EW31nsOPIHHa2lGJ3y1nsaCsJ159llGHX0BnsOPohdhw5hze6GvFO1BVVsI3OQcwsLWAgX7Otlf6vbsN8x3B96cqar9rVcpJlGRP0P/eKGHIJ2OsR8dmogvmS1YH+J3X/fBH3xxTcKdFODNwwzAT0aQoLRv2VVRL+iAI9Ywz7qmW8GpTQ7xJQ6nbgo4CCh2WR5ZsZv6FBwa9+EXVZArw5DpzrlfFZ2XL7RAavU4CvRAoO3fTx7/yTzkIdnTHsb5bxrFNEu0tASa4D14Zl3C4OHZ/F2Z/XK5Ht4yfag73cX5o96hpk/K3BEYxcuf3Ka2T8PiCiO0f1r4xrhVpnMa+fgIZGGa8GRPTkCCgrEHE7oFgeugmC/pf9+KhmD27f78d/n/GgeaQR/75UgWbGwOsfuNCDf725F2OVTtRUF+LHR3140SeHQZCRnYYSTxr2H94PGID+Xx9U4lS1E/XNe/GfnvbjtwFtf+6D4neXcG+mPSKaD+qSOVB9+iluz/XAGXUSCK5XcpDHx7e7PtTGwPlvl3ai4qD/bOEeJtoqUFDchtGPf8Ltv7RBWYah7MxDTq4HvvH7MAL97U9m0FpegsK6dzH79c847c8Otp/bx3fwWzz47CL2l5XC1zKEwLnNAz1jDrzdOYed/R142+3GO546vDl1EW+WZYT9EwT9oWPYVVqId1z7sCtwETv85eDa4/Xf3XQGOyZH8bY7D7uL6/FWTyTo326dw86BduzO3oPduZXYFZjDG5VZ4fK5H0K+KsXIZy9wfP/qhw15O7L81zF/7ySKdCcptexUXMYEvR6c9Y0Kfl0eg+WOshLRR+//vCnSGWagV42cUxYb9If6+IlDA5O7UMSVMkc4IlT3j7XkYuttk/GkTljRyfXbmw29CIIQcayaehk/N0a1z8IYfyLax9tQXCXj93YxCBbur5NDCi57lk9EjCFkP+1EwP37rFH7rdohdv0EHB3Q7M/t2d6yyoj+bzUYYAz+M134bUBEEP5Pq9G/3OEEhwCHDrKdp7vwv2ZdKzp6/miLIej/y0RaePvhuV7869nI/cuPP8Gt92rD26ht5kvB3YMTD55j/u4dvDs1iL054ortzCJmDvr753shLbfH0XQJnz08teJ+VFb/vCHo54bc4WNWvv8Ut47XB38z5kbvxy9xtl8Fv4TGc79ubkQvOILQVm0WHZEHQd9bE96G+Uax40AfdgdBn4W3AlfxZmXoxMCYiLd7roQj+uCJpOcKdjYXhvdXjxO9VG1xpks7yURvE/2bsQqM3XuOe0sv8PDRIiZqrO8bXVay/Y4Jev3N1LJqGa9btaEZK6A32l81ztpBL+D0sBIRgaplWl1mF0p4OqXgcY+Eaw0iAm4W7pRqGWagz8kTcWdAxosJBa8mFbya0oaurOyvbmME0vW2j+WIeDIuodXBwIepvpqQ4FeHpthK++n9q9aNL63WbzVj9EGoxwL98n/8uJ6GMvz2VTf+7ecB/N/nA/h/Lwbx7x9o4FPraAb6X3u1E2/bqa4V+5ef+NEQ9Lx8JrlR1nEQ0xe/wfzi5xgojbwiiAf6+VPNYVCzrAo0tlWFh3bU+puB/v0O7XjF/J7B6f3LoA9FsceatUAnOFS0iUM37xR04c3xWew8ehk7jl3GzveuYkdnWbi9HPQ7O/aGf7O0QrxdWhQc3mEsD7smr2CXbrJG8MSgH7rxjWDnsYvYGTiAXa2deMuTFTE0pNpPBf1fujPDx1LXGS35TfzMvCLkFZai8sB9zN84EDH0Z7RfKvy/7UDPo9AMp4C+MhEz++Ug9G/qhMedagR65nDg0qiCe5UOlGWFhnV6m+XwPQpVEEb7q+v50ipI9ftY+c6jorkRBefcDNmlEl51iuEpfDzCjz6R2An0THRh6cc+/ONQLhq8GagsysC757tXgJrbYT2g33f8CW4vR8lmNuVgKDn8Le5dHECa7hJ/NaA3Kn+toB+99wJbBXrmKMGudz/AG3Wl2J3tCn7e7uBj8sag17ffEuiZgHeyfHi7sgO7/Eex89gHeKN0ZeTNy+q78RJ/6Vrb1Egao++LHPPml/bq0AsHxUS3gvvqmDZjaG1W8KReHRoI3cyNHrpRh35Up689oleHHrSIxuOTcKM8cjhFPU70kkNeEgVIy0MD/HdVvYxXUeN8HNS/xpheydJFLExLGJZCx+f7tzTFBn2s/fX1iQ369bWPl8/rxH3yuEZAb5uC+3s1W/F1MYduGrZ46GY5omfuEvy3l014f/nmHa/v0FzvhoO+cOobPPigf+WVnFCFvvOzaMrVbCZ1fISHnx5Bnh701WdxZyH29EoeYesjer3P9d/XBvrQzVoVbrw/1v7l500bumEZ+/HG8UN4K6x/Abvbz68C9Nl4a+Qq3iwLXbHw+u/2X9IN3Qh4R5TBwv1TwO6WGezoKl8RtTNWhakvf8GRGMOOejsbfWf7TuPm4nlU6vxqtG0q/B8zon+m3kzNE3FXdzOWN7i4UsarIQl9LgFl+SK+nJBxYfnpOu44Pmsn+maufkydl8FcIn6cknHEtTzdMkNAhsBv1jBkp4f+C96M7RVRxqdj6tbzm4n8ZmDv8s3YjwMKHuhgZuYUXr/RLgXftzpQny2gaI+AM70hKOr3Y1kilqZkvJ8Xitq9acsnMsGBa+MyPq8JRfR1xRLmAzFAb7R/gtuntkEpkvBbn4S7YzIOZGjQ4vatqDW+GRvf/gIaGxW8GpDQtXwzdn61N2NNhm6Y6MYPf+vDf37PjQavE919lXi91BMGPb9acbt1N2Pv70Wjh/9WkC1y/YRm3cQbunFUn8XtxY/QqLNNUJcsF51Xn+GTC5OoKvYiv6wL07d+xo3j9RH3ZVjREVz77iECVSWhm7N7tHsCZqBnTEGmy6PdjP34MIpy+W8X0vhQ2/KsG+OhGwfKT/yAzz4+Al+GCMU7jplvXm4e6B1lePPwRbzRWIbd2W7s3juIN6ZXA3oHdrfNYUfAj92KA+/sacEbh6/qQJ+OtwavYGdXA3bn5OCdnL3YFbiEnY2eFaB3lJ3Cx0u30OrU9K3q38qS1W7jefQqqG9VivhQN73Sq7s5xhwC+hslfL88Pe96uSM8RUzd/9MqB671y9r0TN30sFCHEtDeIOPpRGgq4x/TMo46udAduLL8nzq1kS/V9cF9RQHDzRK+Hw1Nb1zt9ErR6cClXgUvphT8fVzBX9tF1MqRYuHt6GyU8dNyXdTpo/z47gIR94cV/Dah4Ns2B4brYoDeYP/NaF/QRpIDd6aUmM8q8OmpI80ynnD/jci4WSmE5yJbqp/iwOmu0PTK7/0iDjRvwM1Y3Ri9d385/uOjXvyfZz34l6s+vH+6Uwd6Nx4/G9SmV6rTLF924KMi66BnQiF6PnqGj8/1r3gYSnA1IXD+S3zy9S+4980S5k4FUJgWrQ8Xao8/xK2/vghOlVTH0LntzUHfjMPfxpie+fgrDBTEB33Qty4/jt39BQ+/e4F7Dy5ifObxpoGeH/8dbx/enLoQnB75Rncz3m45YzmiD9Y/oxK7Ji9jx/EPsWN6BLu6ZsOgD67PrsauwFnsPBaaXrmztwO7lSj7O+sxefsZrh2pXXFVxsuw8mElJ/DxX++g0y1Z2t5KmXbeJmZEHz1mbecGUN2sCZvsFGknllGN4etPMX//NvxR92jsbismKHC6cpEmMpS998OKG8vBewiPX8R5182veLBFT8YyJoFlOvGOg+HttjnsbPNZhm1W01lc+eoZrp7qQE5UALkav/GbuY2nv8H84xe4v93edaNG5PpZM6sxHm0bCROyh73twd/74qkfQa03MmK0s984JDOWh39cBXUYvfEcs/25EaBkyh64+fx+/jF6101wvQcZ64DlWuzEp1S+k5kd+mT7sGvkMt6o1B5Qi1dmVvUAmspyIG7A2DrnnZjhhnu7veuGQG9vMMXrBLQ+9f3HWDWmF0LDPw8ePcGVuTEURQ092lkHjHmx69BV/IcT17Dj6Bx29jZjd4wnX+3chmSsW8TQTTI2gOqc+nAjH5OPSQPr0wCB3uLNGxLa+oRG9iP7kQa2TgMEegJ9xPgudcat64xke7J9ojQQBL3Taf1mSKIqQuWSyEkDpAHSQGI0QKCniJ4ietIAaSDFNUCgT3EHU4SUmAiJ7Ep2TSYNEOhjgJ6SK1Mn3spObKa/razXdjh2qiZPJ9DHAn0KJ1feDp012dsYejtm7OTeyd42u9c/2ZOnG9nXVqDfqAe2rLwm2Mgg/H+z19Cq+yVzzk21DbGW3AcZBc3oCRzE6FATXBvwBGKs49jxv2TQH38fUVrFKbRceoKeuZMrU22mlcE7ehPtF5bQde4z1PU0Bl+YptqbZZTDO3YruN4/O48afy3kGD7mT7A6u+7CfyyANN27rtRyErW0S/tSrX8T6A0j+tivoVUFnmpC4O3ij9fn7OvBYGAItbV+DBPo13STMlGBBn87Z1bbdXRcnEf5wBX4o0DP347pCnwN/3tH4C7wwlk6jNrZx2hoCiVuYcwJz9S36Hx3ArkeLzL3jqF+bgm1NStT9Qm5Y2i+NI/iPC2Ji6p9K8vGcy9xcSQyqXq8/ezUvlTr3/YEvUFycSY7cHdSxoxLezeJs0TG6yERe3mqMivJvXly8SZJlxxbe3ujKsRERvRMzkVZ8wD6A1MYHhpGa1VBRFILV80ohhorUdYWQCAwgd62OuTp3t4Xb71Z+UwuQdvIKKpzNPtJvi6M9NUFMyBxEOxtbkFRpgiW24ShTQa9GlHfrlx++ylPLt/siEjiHUwOb+A/b6WMp/VC8HXXI34F39WEvg93KuFXaas+jrVUj2+U3H6r9cdYAbzjZ+BxyWC+k+hcAfoy7Jv9BuU+Lb9A2v6b6DnQHcp5LNSjYvY2it2a/7P6voR/pDHihMYEN4qOLqG1b59pys1YNlT/q5v5FReG8yLKVdcZLe3UPjPQcx1c46/n7hHhjXE1ZNS+rfzflqA3Si7O35ce6FTwfa2a6ITngNUlPomTnJvvzzMqPe8W0bqHJxcXcSOgBF9xq3dCokDPQZLXMI6h1mp4crLhdJWgsX8S+73a+8w5yANDfaguciEruxBV/kkMNRWFX+Jktj5e+Txjkq/tAPqqQzlU+eV5YcsU+mvU3wIENenDGkAfzsn56HnozYnq0uLbAVXQPuuVEMgVsDdfxINxLbl8PP+JXgmv2h0QmYC/dMn4rpXnEuZ5c2UcWE5movdz9Hf1+HbVH69f2D8xQV+Pyov3UaIDuVh3BT3HAgbDMw64AovoHKyOALJS9yG6zp5GzirfoSM1nsWlyzPwV7lRcnARx1tz4PWfwMmbH6NTF5xF2139baf2mYI+XcSDKQWvAyIqCPSrn7mhdrToDFVqhisuiKwSGX8fElHKI3iHgKvjCs7qMgLxbYwunTkoeIala4VaRFNWI+OX6OTlwZuxiRm6YYIjIkrKqRnBUJ2WWIGDfGR/cTjRhZDfisBAffid8fHWxytf9nUh0FcTiuAd+WgMjKEmRidcS0QfzsmpvjlRXVp8O6Dq/y/2aRFpS7OWvDye/9geEd/3iygQHPi4TcQHnSLymQPXxiS0WeiQ6vGTQn+moBfhCnyOusZcmII+ewANF79AWaGWAJ1ltKH2/DeoKg/lYvVMPkGL3xtxIlDBHL1UCtsxeOomLj9cwqVPF3Dt9iI+mZ/HsYPDKM7S+lz0frF+x75iUU9kiW+fGeh5fRVFgHs501as+tvtP1tG9PrXJEfnNGWyiPmpUKISh1vCs1EJDVE3i4xBH8qZ+npqObE3T+49qYSTn6vOSVREHxSIuxb7e0YxPDKNwMg0RkYPItBQEO5IHOTDut9MdqGwKDc8vBNvvRKnfCaXonV0COWZDEIwam9GbpT9eD3XAnrVfmtdqqDV+7+qXku+ztfznLdG/mOSiPkxCQ1OETdrHZjulNDM0z8OWLvEjnV82+rPFPQOZHd8iPLyLEPQM3kf9r6/hNb+qvDVImPpyB39Cv6DPeErgNWAXvW74GrH0SsLOHdxHPlrhKE56BPfvnigV9uaLMvkAz1jGPYrWKgQUFUn45dmISxU1ejxQP9JSShFoM+5nCow6rI+UaBnDg/qhyfRXp6PLKcTmZlOFDaMmoJebZO6jAa9+j9fWimfR93etgPwl2UipzqAoYb88NVDRFlbOHQTD/RG/uOgnhuVMMzzCJcwtLfIGCsU8bSND+fEjygtgd4u+jMFvdbWWBE9cxSi6PAiOqa7I2fkMB4xf419Xu2KarWgZ2IJBm7+hLnBEjTMPsVHJ5qgWLC9XntBLW9x+wj0MWapRDtprb/VjhZ96RydXNxZIuFVj4S5AQUfFmiiVo/LQR8rObd66a/PoJWeLqA0XRN2UGQJGrph6RXwj3XDu/z+bV6fvPqJjQO9hfJ5+ySfHyOdTajtmUJDfuxZFWuJ6Ddq6MYY9KGhNyP/cXtO98i41CzhnJvBVynjfKMUvCmrasNsmVT6iwlC85uxQW0LufCML6DzyCicUe+BZ0HQP0HvtR8jPlaHbnj5Ge3XMX9vBqUyg1BwABcffYUB3VCpmf3162JH9JvXPgL9JoA+bnJxyYH5cQW/T0jwR4k1KGaT5Nz7qmW87JfgzxFQ7HLg2rCC+dLIk0XCInqhAI2BSXRUFiDLmY1cbxNaB8Y3DvQWyg/aRypBa2AagUA78nUZhjjolIzQlUamtw3DQ20ozOS/0y1FxPqOupbvKmjNQB/Pf63NMn4ISJhMZ5C8Eh4Py4hOTm9UN/X4dtUfv3kuZxcg3VWA9NpZ+Odmkce/u1yhWTXR0ytLhlF7Vj+9UsGevnvompmFJ8+NtOzljzMjeN+IT29Ucr3IdGsf7yHrY/RBbQlO7MkJTS7g9c0pKLCc19VO7TMDPdfJeLuMxVYxaZ4zseXQTfzk4nz2jYzf2x3hsWt95+WOMEruzafnDXMYjCl4OSpjvtYBd9SlZaJAz+uY7qlHe/8EAoFxdDfvg68msGGgt1J+sDMyCb7WaQT2+yIAzqdXVvQcxNj4oYjP6FgHCnUnBL2tN/K7Cloj0AfrHsd/fIrlHxMSWvnNepeIH6cjp+Oa1Vc9vl31x6cflpxaGXH3XL0Iz7J/GH9gakx9YOou6rq1B6Z4nlTfiRj7nzmIzKg+oNpptUM36n5rWdqpfaaglxy4M6VgsTJyJGAtbd6sfWwFequN5h3yWL+C28WRkbjV/eNtFwS9jZMrx6t/vPUc6OXdB7DfK4dvAsfbh9Zrs8i2Un/kB80PibCF9q4b4+TpzC3i52kZBzMSw59EtCs5Qe8U8dcpCQHdg0QbaZxEJVceOfIh7PAJHDqD0bH3MPLulVXVZyNtnMxlsS3UXzLbLRnqHn7XjUny9CJ+1dgrrhgJsHP7khL03NCvux3hueV2NrAd65ZZPoiRjrLwFDo71tHOdSL9JTaqtrPv+Q3//nYFD8qSZ9iG2zMpQW9nIVDdti8EyPfke7tqgECfwFlEdnU61YuARBrYXhog0BPo6YYsaYA0kOIaINCnuIMpcttekRv5m/wdSwMEegI9RXOkAdJAimuAQJ/iDo51dqf/KOojDWwvDRDoCfRJF81R8uytg5T2QBHPOfAAvXnJ89DQdj65EegJ9MkHepPk7du5M29G28MPFPmmMPt4Af0eAv1m2H29xyDQrxL0/PF3Sp69vs5t9Bppq2I2exeRXZJLW23LarezS/vM3gWz2jbR9om/QiPQrwL0lDxbwOE+BfqXjq2lkyYK9HZKLh3PLpQ8O/Fwi+eD7bTedqA3S27NHcMTb1DybEqePb+wMtWjnZJLx4MIJc8m0MfTyEautxXo+bAIJc827gDcPjyipuTZs4gNekqevVnJwc2GblgSJs/eSKjasSxbgZ4bKF5yax7RU/Js7YVKlDw79okxdoaizUsuHauzU/Ls2L6KZSv6b2NtZTvQx0tuHZ0zlZJnU/LsWFAwB33ik0vHqpP6HyXP3liIqXalpbFdbQV6K8mto0Ef7Vyz9VbKp+TZxmJRh470N2PLqmW8btXyzvLXuNoieXvMnKpqRK/NGqLk2ZotQjljrSUHNxu6ie6T9Nu4T22WbewFegvJrc1Azo1mtt5Kcm5eBiXPji1MFfRJkbw9Jug3L7m0UQem5NmxtWVkL/p/Y+xlL9BbSG5tBnIuCrP1zEL5vAxGybNjPkSlgp6SZ1PybLOInusk2ZJnp/oJxVag58am5NnGZ3AVtPqhk6p6bYw+eJKi5NnovfZjxIeSZ4eGZzYyObgp6JMweTaBfhUPFKWKsSh5tvHJxoqP+Qlpq5K3W6kfbbN2/2rvukmt5NmprglbRfR2SJzN60DJs9cOAt5hKHn2+uxnZ+iE33WTYsmz7WzzjaibrUC/EQ3aiDIoefb6QEXJs9dnv43Q8FaVkazJs7fKXpt1XAL9Nhya2ixx0XG2L/DJ9/byPYGeQB9zhg11VHt1VPIH+WM9GiDQE+gJ9KQB0kCKa4BAn+IOXk8UQPtSFEkaSA0NEOgJ9BTNkQZIAymuAQJ9ijuYIrLUiMjIj+TH9WiAQE+gT7pojpKDbx30tAemKDn4esC72fsS6An0yQd6Sg6+ZT4LPzBFycG3zAdrOUkQ6FcJev54PyUH115tuxbRJSpnLK+LXZJnr8UuVvaxS/vM3nVjpR20zeZelRHoVwF6Sg5OycFVQAm5Y2i+NI/iPO1d/Oo6K0tKDr65oLPik1Texnagp+Tgxh1AfXvl7UpKDh47Z2wBvONn4HHJiJ1hyvx99EyoR8XsbRS7tSuWrL4v4R9pjLhMZ4IbRUeX0Nq3DwLTtl0NKCg5uLHOV2NH2taaHW0Feg4ySg5u7DgV9JQcnJKDxz6RWcugpcKRDwO5AovoHKyOOJEpdR+i6+xp5MjGJzGzoRtKDm7ch1Xbb/bSVqDnjafk4MYiUUH/xT5KDh4rotd3HnMQinAFPkddYy5ipRJUy2HZA2i4+AXKCsUwCFlGG2rPf4Oq8szgf57JJ2jxe8Pr1X1jLSk5uLG2Y9mL/ts4e9kO9JQc3Ni5KuiNEo/w9aeHFbyeUvBqUvuoOV2ZJGJ+TEKDU8TNWgemOyU0p4tYGBDhtTAEEev4K3LGyiLmp2QcdTI43BKejUpoECIjQ6ObsfHqr3Z8Fpx1M4NSkzqbg56SgzN5H/a+v4TW/iqIy3ZkLB25o1/Bf7AH8vJ/Ricys4he9RMtjfvyZtvGVqC3krzbLFUgN57ZeivlU3JwY3FaAj0lBzeN7plYgoGbP2FusAQNs0/x0YkmKCYnLCMgmJ/ItBNrrCsW5ihE0eFFdEx3I82hbUvJwY21b+SHZPnfXqCn5ODmkGArZ73oUwnyd4Ef6lNw06d13vR0AaXpoaEevn66R8alZgnn3Ay+ShnnGyV8V6MNBZkJVwU9JQePTFVodeiG25aSg33LyTEAABHJSURBVKcuTM36zlavsxfoLSTvNovYuTHN1lNy8D+htVnGDwEJk+kMklfC42EZd0q0E4OZIFXQU3JwSg5uNnTDdULJwe11QrMV6DlkKDm4sUBU0BqN0XP7MUoOHpEYnCcKp+TgoRM5JQc37ltmAU4qrLMd6O1gVEoOvr4OwU9IlBx8fTa0Qz+IVQftXTeUHDyWfez6n61AT8nBUwMOlBw8NfwYC1rhd91QcnDT+2mxbLeV/9kK9FtpCP2xKTn4+kBFycHXZz+9FpPtOyUHt6fvCfSreNdNsnU6qq89Ox35hfyy2Rog0BPok+oSdLM7CB2PoJwKGiDQE+gJ9KQB0kCKa4BAn+IOToVohNpAUTVpYH0aINAT6CmaIw2QBlJcAwT6FHcwRULri4TIfmS/VNAAgZ5AT9EcaYA0kOIaINCnuINTIRqhNlBUTRpYnwYI9KsEPX+8P1mTg/O3Vf7jwJ+Dnz8GRfiiXo8bbz11tvV1NrIf2W+rNECgXwXokz05uCgJ8GQI8OyVEAv08dZvlUjpuARI0sD6NGA70FNycGOHqm+vNEoOztcfH1Rww6e9X17/vnq1s7Ci2KC3vF524FpAwYsea5mp1HJpaexbsg3ZJpEasBXoOagoObix4FXQGycH3yTQp4t4MKXgdUBERdTwTyLFSmUba4NsQ7Yx04CtQM8rSsnBjQWrgt44OfjmgJ77SVEEuCVrCUvMBEjrjP1NtiHbbJQGbAd6Sg5uLG4V9EaJR/j6zRi62SjxUTnGvibbkG02UgO2Ar2V5N1mqQK5YczWWyk/2ZODE+gJEBsJCCorNfRkL9BTcnDTB1esRPQT3Qrul6mp4xhamxU8qdduzvKOu96bsdT5U6Pzkx+3jx/tBXpKDr4u0POOW1wp49WQhD6XgLJ8EV9OyLiQFzmWzlwifpySccS1PN0yQ0CGoG0Tdz0lfzb1EwF0+wA0WXxtK9Bzo1FycONOEi+i5/ZjDgH9jRK+H5PxIiDjerkDmVEzY3g57Q0ynk4ooYenpmUcdepAH2+95MCdKQWLlZFXCskieqqnscbINqlpG9uB3g5Co+Tg5mJnbhE/T8s4mKGdHOzgN6qDud/IPtvXPrYCPSUHTw4h8pywf/SKcEddKRBIksN/5Kft5ydbgd4uAqTk4MYdgZI/G9vGLvqlepCPojVAoF/Fu26ijUe/qUORBkgDyaABAj2BnmaQkAZIAymuAQJ9ijs4GaINqiNFxaSBxGqAQE+gp2iONEAaSHENEOhT3MEUKSU2UiL7kn2TQQMEegI9RXOkAdJAimuAQJ/iDk6GaIPqSFExaSCxGiDQE+gpmiMNkAZSXAME+hR3MEVKiY2UyL5k32TQAIGeQE/RHGmANJDiGiDQp7iDkyHaoDpSVEwaSKwGCPQEeormSAOkgRTXAIE+xR1MkVJiIyWyL9k3GTRAoCfQUzRHGiANpLgGCPQp7uBkiDaojhQVkwYSqwECPYGeojnSAGkgxTVAoE9xB1OklNhIiexL9k0GDRDoCfQUzZEGSAMprgECfYo7OBmiDaojRcWkgcRqgEBPoKdojjRAGkhxDRDoU9zBFCklNlIi+5J9k0EDBHoCPUVzpAHSQIprgECf4g5OhmiD6khRMWkgsRog0BPoKZojDZAGUlwDBPoUdzBFSomNlMi+ZN9k0ACBnkBP0RxpgDSQ4hog0Ke4g5Mh2qA6UlRMGkisBgj0MUDPqmZw69Fz3OOfz2dQxlg44mFKH06p6x49QG+eto7Emlixbhf7mulvu9hgu7YzUXwh0McCfc0s5hcuo6mgCHmePZD1oBcysIf/75vC7OMF9HsI9Nu1Uyaq3cxEf4k6JpVrjyCFJYgvtgI9YwIO9ym45VsfPFmeiBejEmp1gF6NkEMdbQalJvszqRenUxD0TMnF3qZ+9A9PIjA4iJZKDxQTO6zGrnbfNhn0xzLK4R27hfYLS/DPzqPGXxsRiCTaxow5kFZxCi2XnqBn7iSyo7TB0srgHb0ZrF/Xuc9Q19OINIfWn63WnzERzq678B8LIE3Q9t8u7dtovhDoDSP67Qd6xhQUtUxgqL0KnuxsZOVVom1oCi1eJTx0leiOtpXl2x30jDnhmfoWne9OINfjRebeMdTPLaG2JmvV/mk89xIXRwpXtR9jachqu46Oi/MoH7gCfxTouX5cga/hf+8I3AVeOEuHUTv7GA1N7uBxVlN/IXcMzZfmUZznWFUdVf0ke/u2B+grHLjUp+DluIyFJhEFyxEBkx24OyljxqWd4Z0lMl4PidjLGFi+hJfTCv5x4M8Rnz96ROQsRx5MFDDUJOGHMRkvAjJuVArYEx2VBC+dEwN6JueirHkA/YEpDA8No7WqAGm647tqRjHUWImytgACgQn0ttUhT9HaG2+9WflMLkHbyCiqc7TyJF8XRvrqkMXtJxSgbnAA+7K09XtqRhBoKFhTZ1M7ndWlCtrblQ5c65dD/m92oFAX0Zn5z1sp42m9AMYYRvwKvqsJfR/uVHDBwr0U9fi3bKo/JtSjYvY2it2af7L6voR/pHHV/qmb+RUXhvNWtR9jBfCOn4HHJYP5TqJzBejLsG/2G5T7hHC5aftvoudANxxBfVmrPxPcKDq6hNa+fRB0fcOqjvh2yd4+M9BzDl4LKHjRI8Jr0T62jOh/6hUx5BKwN1/E/TEFd0pCwuEdONCp4Pta7Xdvm4In9cu/RQavU4CvRAoO3fTx7/yTzkJCYwxl1TKed4to3SOg1C3iRkDBR0Vax+EiSdTQDQdJXsM4hlqr4cnJhtNVgsb+Sez3poU7Bgd5YKgP1UUuZGUXoso/iaGmIojLDjVbH698xmT42g6gr9oVPB6/PC5smUJ/Teh3dEcKl1drDQiMVWDs3vJN7PAN6+e4N9sTtH90+dG/VdA+65UQyA35/8F4pP/N/Cd6Jbxqd0BkAv7SJeO7VgccTMDJIRkH0iN9HH1s/ls9fjLoL1RfB1yBRXQOVof1E6td6n9S41lcujwDf5UbJQcXcbw1B17/CZy8+TE6dcGTun30kttHWD7pxgZ9PSov3keJ7kQk1l1Bz7FAzOElPgwUq/5K3YfoOnsaOXJ8n+nrmErtMwV9uogHUwpeB0RUJDPoH5ZpEUF9o4LnTdrlW1aJjL8PicHxc+YQcHVcwdncSEEYjdHzE8WhPgXXCrXty2pk/KIrnwsnUaAPli04IqKUnJoRDNV5wh2Vg3xkf3EYjEJ+KwID9eGrjnjrWZzyZV8XAn01oQjekY/GwBhqDDo5Sy9DR2AE1Tma/fUdK/o7P5Fk5hUhj9+s1n9y0sPti95H/1sF7Rf7NP+3NCt41qid2M38x/aI+L5fRIHgwMdtIj7oFJHPHLg2JqHNQodQj58M+uN2Y9kDaLj4BcoKRUv2VQrbMXjqJi4/XMKlTxdw7fYiPpmfx7GDwyjWXcXpfWL03Rz0IlyBz1HXmAtT0MeoP8toQ+35b1BVnhlsk2fyCVr83m3XPjPQc58oigC3pHHMyE/q/7aM6PU3Y3kE97pVAw2TRcxPyTjqZHC4JTwbldCgu7TnDTMGvYDTwwpeTyl4Nal99OUH90/g0I3irsX+nlEMj0wjMDKNkdGDEUMjHOTDuqESJrtQWJQbHt6Jtz5e+UwuRevoEMozGYTcJgwNNSM3yn5BG4guVPVMobfGDckCJFVBrWepglbv/6p6BS9bQv7n6838xyQR82MSGpwibtY6MN0poTldxMKAtUvcWMe3rf7kfdj7/hJa+6vCV3tWbS+42nH0ygLOXRxH/ipgoS/fHPQOZHd8iPLyLEPQsxj1ZywduaNfwX+wJ3wFsBrQq/VLhfbFA73aVqvL5AM9Yxj2K1ioEFBVJ+OXZmGF0OOB/pOS5SGd5aEdb9RlfaIieubwoH54Eu3l+chyOpGZ6URhw6gp6KMdGQ16/Xor5fOo29t2AP6yTORUBzDUkB++elDLYkIWStvHMbi/BBkxTgLqdtHLjRq6iQd6I/9xUM+NShj2SbhRwtDeImOsUMTTNj6cEz/6sQR6G+iPOQpRdHgRHdPdETNaov0R6zcTSzBw8yfMDZagYfYpPjrRtKZZVeag12wdK6I3qj9jfOjna+zzald0qwV9qrRvW4A++tL512YtoufidZZIeNUjYW5AwYcFmqhUYXPQ/xpjeqU6dHNTN30zPV1AabomLF5GwkCfXgH/WDe8YqjOvD559RMbB3oL5fP2ST4/RjqbUNszhYb8SNvyebxFzSMY6qhElm5anGpbs+VGDd0Ygz409GbkP27P6R4Zl5olnHMz+CplnG+UgjdlzeqtrlNBb2f9MSEXnvEFdB4ZhXNZR2r9rSwz2q9j/t4MSmUGoeAALj76CgO6oUwrZfBtYoPe/GZscD+T+odA/wS9136M+FgduuHlp0r7tgXof1ZvxnpEfDbKb8ZFwpxJDsyPK/h9QoI/hthZloilKRnv54Uid2+aNsa7r1rGy34J/hwBxS4Hrg0rmC+NKj9BQzd8VktjYBIdlQXIcmYj19uE1oHxjQO9hfKDnU0qQWtgGoFAO/J1MOc3Z3OrhxEYaENRdgbS05c/aXLEfQVeRiI+KmjNQB/Pf63NMn4ISJhMZ5C8Eh4Pyyv0Y1R39fh21R+fvrin7x66ZmbhyXMjLXv548yw7B8mOLEnJ3Tzn/s7p6DA8tAc317OLkC6qwDptbPwz80ij393uYJXhSumV5YMo/asfnqlef359E0l14tMt/bxHrI+Rh/Udoq0zwz0XKfj7TIWW0W4LFypcrvYcujm06rl6XUTMhaaHSjSwSjozODsGxm/tzvCY9f6zssN0dko46eJ0FRLdYw3uK8oYJjDYEzBy1EZ87UOuKOMlaiInh8/3VOP9v4JBALj6G7eB19NYMNAb6X8oA2YBF/rNAL7fRFDGoxlYF/XQYyNH4r4jC7fvOX7JvKjgtYI9MG6x/Efn2L5x4SEVj6dzyXix+nI6bhm9VePb1f9MeaG78TKiLfnzEFkRmnYrJ1rXcenV5acinH8qxfhUadA8wemxtQHpu6irlt7YGot9V/t0M1a28b3s1P7TEEvOXBnSsFiZeRIhFnbbQV6s4rq1/EOeaxfwe3iyEhcv816vgdB//hFnHfd/IoHSfpkLH9wpbz7APZ75YSCez0+sPO+W6k/O9uF6rb+QEh7140xX5hbxM/TMg5mWOdfcoLeKeKvUxICugeJNlJkTNkDtzo90OhdN8H1HmREXW1sZD0SVRbLrEL3aDd8q5ynnKj6JFu5bAv1l2y2ovquDv7hd92Y8KWIX7X2iitGIsxsnZSg5w193e0Izy03ayCtWym0zPJBjHSUhaewkY1W2sjMJqS/1dnLzJa0bnW25BMO+tsVPNA9a2TFhkkJeisNo21WJyCyF9mLNJC6GiDQJ/gGI3We1O085FvybbJogEBPoKcbsqQB0kCKayAI+mQ5K1E9KYIiDZAGSAOr1wCBPsXP5NQpVt8pyGZks1TTAIGeQE+X7aQB0kCKayAC9MGXUt19ihuf3kCgNoecn+LOT7WohdpDkThpILYGokAvIzO/FBVjn2L+6wuoWMWbC8nAsQ1MdiG7kAZIA1utgQjQq5Vhe0Zx/vE82jOtP2Kr7ktLEjVpgDRAGrCXBmKDPv8gLj/+BE1rTEpATraXk8kf5A/SwPbWQGzQ+47h+tIV1G7CG/FIgNtbgOR/8j9pIPEaiA36rCGcXfoCQ0X0dkMSYeJFSDYmG5MGEquB2KBnDhQMzePOdy9w/9Fz3JvtWZFujhyTWMeQfcm+pAHSwEZpIDbo0zpw4pslHG6vQD5/XWZOOk21pKmWpAHSAGkgSTUQG/TBMfoPUUdj9CTsJBX2RkVCVA5F1amggdigz38XVx5/hKYkTKqRCk6hNhBcSAOkgY3UQGzQ0zx6iuQpkicNkAZSRgMrQM+YA5mN53Fj6SrqRHpgaiPPqlQWRWmkAdLAVmggAvTBd93cf4EHS9/hzGApzbShiCZlIpqt6Fx0TIK6XTQQBXoZmW4PnIqDOjhBnjRAGiANpIgGIkBvl7MP1YMiIdIAaYA0sHEaINCnyBmbOsXGdQqyJdky1TTw/wHSZkbqM4d3xgAAAABJRU5ErkJggg==;" vertex="1" parent="1">
          <mxGeometry x="240" y="87" width="378" height="166" as="geometry" />
        </mxCell>
        <mxCell id="g8UI2GeRNX_eKLhDF2_x-4" style="edgeStyle=orthogonalEdgeStyle;rounded=0;orthogonalLoop=1;jettySize=auto;html=1;entryX=0;entryY=0.5;entryDx=0;entryDy=0;" edge="1" parent="1" source="g8UI2GeRNX_eKLhDF2_x-3" target="g8UI2GeRNX_eKLhDF2_x-2">
          <mxGeometry relative="1" as="geometry" />
        </mxCell>
        <mxCell id="g8UI2GeRNX_eKLhDF2_x-3" value="示例代码" style="rounded=0;whiteSpace=wrap;html=1;fillColor=#dae8fc;strokeColor=#6c8ebf;" vertex="1" parent="1">
          <mxGeometry x="20" y="140" width="120" height="60" as="geometry" />
        </mxCell>
        <mxCell id="g8UI2GeRNX_eKLhDF2_x-5" value="-XX:NewSize=5242880 -XX:MaxNewSize=5242880 -XX:InitialHeapSize=10485760 -XX:MaxHeapSize=10485760 -XX:SurvivorRatio=8 -XX:PretenureSizeThreshold=10485760 -XX:+UseParNewGC -XX:+UseConcMarkSweepGC -XX:+PrintGCDetails -XX:+PrintGCTimeStamps -Xloggc:gc.log" style="text;html=1;strokeColor=#82b366;fillColor=#d5e8d4;align=left;verticalAlign=middle;whiteSpace=wrap;rounded=0;" vertex="1" parent="1">
          <mxGeometry x="240" y="300" width="482" height="90" as="geometry" />
        </mxCell>
        <mxCell id="g8UI2GeRNX_eKLhDF2_x-7" style="edgeStyle=orthogonalEdgeStyle;rounded=0;orthogonalLoop=1;jettySize=auto;html=1;entryX=0;entryY=0.5;entryDx=0;entryDy=0;" edge="1" parent="1" source="g8UI2GeRNX_eKLhDF2_x-6" target="g8UI2GeRNX_eKLhDF2_x-5">
          <mxGeometry relative="1" as="geometry" />
        </mxCell>
        <mxCell id="g8UI2GeRNX_eKLhDF2_x-6" value="JVM参数配置" style="rounded=0;whiteSpace=wrap;html=1;align=center;fillColor=#dae8fc;strokeColor=#6c8ebf;" vertex="1" parent="1">
          <mxGeometry x="20" y="315" width="120" height="60" as="geometry" />
        </mxCell>
      </root>
    </mxGraphModel>
  </diagram>
</mxfile>
